# xmcd
#
# Track frame offsets:
#	150
#	12174
#	22854
#	33166
#	45382
#	58127
#	69032
#	80848
#	91289
#	103570
#	115163
#	126707
#
# Disc length: 1832 seconds
#
# Revision: 1
# Processed by: cddbd v1.5.2PL0 Copyright (c) Steve Scherf et al.
# Submitted via: audiograbber 1.83.01
#
DISCID=9107260c
DTITLE=George Jones - Mr. Country and Western Music
DYEAR=1965
DGENRE=Country
TTITLE0=I Just Lost My Favorite Girl
TTITLE1=What's Bad For You Is Good For Me
TTITLE2=Don't You Ever Get Tired
TTITLE3=How Proud I Would Have Been
TTITLE4=Flowers For Mama
TTITLE5=Gonna Take Me Away From You
TTITLE6=I Can't Get Used To Being Lonely
TTITLE7=Let A Little Loving Come In
TTITLE8=The Selfishness In Man
TTITLE9=Worst Of Luck
TTITLE10=Even The Bad Times Are Good
TTITLE11=The Sea Between Our Hearts
EXTD=
EXTT0=
EXTT1=
EXTT2=
EXTT3=
EXTT4=
EXTT5=
EXTT6=
EXTT7=
EXTT8=
EXTT9=
EXTT10=
EXTT11=
PLAYORDER=
